<?xml version="1.0" encoding="UTF-8"?>
<svg xmlns="http://www.w3.org/2000/svg" xmlns:xlink="http://www.w3.org/1999/xlink" width="400px" height="497px" viewBox="0 0 400 496" version="1.1">
<g id="surface1">
<path style=" stroke:none;fill-rule:nonzero;fill:rgb(65.882353%,0%,18.823529%);fill-opacity:1;" d="M 239.015625 263.140625 C 230.753906 263.257812 240.578125 267.394531 251.367188 269.050781 C 254.34375 266.730469 257.046875 264.378906 259.457031 262.089844 C 252.738281 263.734375 245.902344 263.769531 239.015625 263.140625 "/>
<path style=" stroke:none;fill-rule:nonzero;fill:rgb(65.882353%,0%,18.823529%);fill-opacity:1;" d="M 283.359375 252.101562 C 288.28125 245.316406 291.867188 237.890625 293.132812 230.210938 C 292.027344 235.6875 289.054688 240.414062 286.253906 245.402344 C 270.808594 255.113281 284.800781 239.632812 286.242188 233.75 C 269.636719 254.628906 283.964844 246.269531 283.359375 252.101562 "/>
<path style=" stroke:none;fill-rule:nonzero;fill:rgb(65.882353%,0%,18.823529%);fill-opacity:1;" d="M 299.730469 209.554688 C 300.726562 194.695312 296.800781 199.390625 295.480469 205.0625 C 297.019531 205.863281 298.238281 215.539062 299.730469 209.554688 "/>
<path style=" stroke:none;fill-rule:nonzero;fill:rgb(65.882353%,0%,18.823529%);fill-opacity:1;" d="M 207.6875 6.425781 C 212.097656 7.214844 217.214844 7.820312 216.496094 8.871094 C 221.320312 7.816406 222.414062 6.84375 207.6875 6.425781 "/>
<path style=" stroke:none;fill-rule:nonzero;fill:rgb(65.882353%,0%,18.823529%);fill-opacity:1;" d="M 216.496094 8.871094 L 213.378906 9.515625 L 216.28125 9.257812 L 216.496094 8.871094 "/>
<path style=" stroke:none;fill-rule:nonzero;fill:rgb(65.882353%,0%,18.823529%);fill-opacity:1;" d="M 353.984375 215.191406 C 354.476562 228.535156 350.078125 235.011719 346.109375 246.476562 L 338.96875 250.039062 C 333.125 261.375 339.535156 257.234375 335.351562 266.25 C 326.230469 274.351562 307.667969 291.601562 301.730469 293.175781 C 297.394531 293.082031 304.667969 288.066406 305.617188 286.101562 C 293.40625 294.476562 295.820312 298.675781 277.144531 303.761719 L 276.597656 302.550781 C 230.539062 324.195312 166.554688 281.300781 167.398438 222.773438 C 166.90625 226.488281 166 225.5625 164.980469 227.0625 C 162.601562 196.949219 178.902344 166.703125 206.390625 154.351562 C 233.277344 141.058594 264.800781 146.511719 284.058594 164.441406 C 273.480469 150.601562 252.421875 135.925781 227.464844 137.300781 C 203.019531 137.6875 180.152344 153.203125 172.519531 170.050781 C 159.996094 177.925781 158.542969 200.410156 153.085938 204.527344 C 145.742188 258.429688 166.898438 281.71875 202.679688 309.113281 C 208.3125 312.90625 204.265625 313.480469 205.03125 316.371094 C 193.140625 310.808594 182.253906 302.414062 173.300781 292.136719 C 178.050781 299.078125 183.175781 305.828125 189.800781 311.132812 C 178.59375 307.339844 163.617188 284 159.246094 283.050781 C 178.570312 317.609375 237.644531 343.660156 268.578125 330.734375 C 254.265625 331.265625 236.082031 331.03125 220 325.089844 C 213.246094 321.621094 204.058594 314.425781 205.699219 313.082031 C 247.917969 328.835938 291.527344 325.011719 328.054688 295.761719 C 337.347656 288.535156 347.5 276.234375 350.433594 276.066406 C 346.015625 282.703125 351.1875 279.257812 347.792969 285.117188 C 357.054688 270.199219 343.769531 279.046875 357.367188 259.359375 L 362.386719 266.265625 C 360.519531 253.882812 377.78125 238.847656 376.027344 219.265625 C 379.984375 213.277344 380.445312 225.707031 376.242188 239.484375 C 382.074219 224.203125 377.78125 221.746094 379.277344 209.132812 C 380.898438 213.371094 383.019531 217.878906 384.109375 222.351562 C 380.3125 207.582031 388.007812 197.476562 389.914062 188.894531 C 388.035156 188.0625 384.050781 195.425781 383.140625 177.976562 C 383.273438 170.398438 385.25 174.003906 386.015625 172.140625 C 384.523438 171.285156 380.617188 165.476562 378.238281 154.335938 C 379.964844 151.714844 382.847656 161.121094 385.191406 161.507812 C 383.683594 152.648438 381.085938 145.894531 380.980469 139.097656 C 374.128906 124.792969 378.554688 141 372.996094 132.957031 C 365.707031 110.234375 379.046875 127.683594 379.949219 117.359375 C 391.003906 133.355469 397.304688 158.144531 400.199219 168.414062 C 397.992188 155.894531 394.421875 143.765625 390.070312 132.03125 C 393.425781 133.441406 384.660156 106.273438 394.433594 124.265625 C 383.996094 85.910156 349.765625 50.070312 318.277344 33.25 C 322.128906 36.773438 326.992188 41.195312 325.246094 41.890625 C 309.585938 32.574219 312.339844 31.851562 310.097656 27.914062 C 297.339844 22.730469 296.5 28.332031 288.050781 27.921875 C 264.003906 15.183594 259.371094 16.539062 237.242188 8.554688 L 238.25 13.253906 C 222.316406 7.953125 219.6875 15.265625 202.46875 13.273438 C 201.421875 12.457031 207.984375 10.316406 213.386719 9.53125 C 197.984375 11.558594 198.707031 6.5 183.636719 10.089844 C 187.351562 7.484375 191.277344 5.765625 195.242188 3.550781 C 182.679688 4.3125 165.253906 10.851562 170.632812 4.90625 C 150.148438 14.035156 113.761719 26.851562 93.34375 45.976562 L 92.699219 41.691406 C 83.34375 52.910156 51.898438 75.199219 49.394531 89.730469 L 46.890625 90.3125 C 42.023438 98.546875 38.875 107.878906 35.011719 116.351562 C 28.644531 127.191406 25.679688 120.523438 26.582031 122.222656 C 14.058594 147.585938 7.839844 168.902344 2.464844 186.382812 C 6.292969 192.097656 2.554688 220.800781 4.003906 243.773438 C -2.285156 357.230469 83.71875 467.386719 177.730469 492.820312 C 191.507812 497.746094 212 497.558594 229.429688 498.0625 C 208.863281 492.1875 206.207031 494.949219 186.175781 487.972656 C 171.722656 481.175781 168.554688 473.414062 158.320312 464.539062 L 162.371094 471.691406 C 142.300781 464.597656 150.699219 462.910156 134.367188 457.742188 L 138.695312 452.097656 C 132.1875 451.609375 121.460938 441.144531 118.527344 435.355469 L 111.410156 435.636719 C 102.859375 425.09375 98.304688 417.5 98.632812 411.617188 L 96.335938 415.707031 C 93.730469 411.238281 64.875 376.179688 79.84375 384.339844 C 77.0625 381.800781 73.367188 380.207031 69.355469 372.933594 L 72.40625 369.449219 C 65.199219 360.191406 59.144531 348.324219 59.605469 344.371094 C 63.449219 349.554688 66.113281 350.523438 68.753906 351.410156 C 50.5625 306.320312 49.539062 348.925781 35.761719 305.511719 L 38.675781 305.277344 C 36.441406 301.917969 35.085938 298.265625 33.289062 294.683594 L 34.554688 282.054688 C 21.457031 266.925781 30.890625 217.730469 32.78125 190.75 C 34.09375 179.777344 43.714844 168.097656 51.035156 149.78125 L 46.574219 149.015625 C 55.097656 134.164062 95.246094 89.367188 113.839844 91.671875 C 122.847656 80.371094 112.050781 91.632812 110.289062 88.785156 C 130.074219 68.332031 136.292969 74.335938 149.644531 70.65625 C 164.046875 62.121094 137.289062 73.988281 144.113281 67.402344 C 169.007812 61.050781 161.757812 52.960938 194.230469 49.738281 C 197.65625 51.683594 186.28125 52.746094 183.425781 55.273438 C 204.164062 45.136719 249.058594 47.441406 278.214844 60.898438 C 312.050781 76.691406 350.0625 123.378906 351.5625 167.308594 L 353.269531 167.765625 C 352.40625 185.226562 355.945312 205.421875 349.8125 223.972656 L 353.984375 215.191406 "/>
<path style=" stroke:none;fill-rule:nonzero;fill:rgb(65.882353%,0%,18.823529%);fill-opacity:1;" d="M 148.835938 274.472656 L 147.679688 280.257812 C 153.109375 287.625 157.417969 295.605469 164.347656 301.367188 C 159.359375 291.640625 155.65625 287.621094 148.835938 274.472656 "/>
<path style=" stroke:none;fill-rule:nonzero;fill:rgb(65.882353%,0%,18.823529%);fill-opacity:1;" d="M 161.671875 273.964844 C 158.800781 270.792969 157.097656 266.972656 155.195312 263.164062 C 157.015625 269.855469 160.746094 275.605469 164.214844 281.453125 L 161.671875 273.964844 "/>
<path style=" stroke:none;fill-rule:nonzero;fill:rgb(65.882353%,0%,18.823529%);fill-opacity:1;" d="M 388.820312 224.652344 L 387.605469 227.691406 C 385.378906 243.480469 380.574219 259.105469 373.210938 273.589844 C 381.347656 258.304688 386.613281 241.589844 388.820312 224.652344 "/>
<path style=" stroke:none;fill-rule:nonzero;fill:rgb(65.882353%,0%,18.823529%);fill-opacity:1;" d="M 209.320312 2.464844 C 214.90625 0.421875 223.054688 1.34375 228.980469 0 C 221.253906 0.648438 213.566406 1.035156 205.976562 2.011719 L 209.320312 2.464844 "/>
<path style=" stroke:none;fill-rule:nonzero;fill:rgb(65.882353%,0%,18.823529%);fill-opacity:1;" d="M 13.203125 106.636719 C 14.492188 118.539062 4.238281 123.160156 15.476562 115.3125 C 21.5 101.757812 13.121094 111.566406 13.203125 106.636719 "/>
<path style=" stroke:none;fill-rule:nonzero;fill:rgb(65.882353%,0%,18.823529%);fill-opacity:1;" d="M 0 161.726562 C 2.589844 153.792969 3.058594 149.023438 4.046875 144.433594 C -3.109375 153.566406 0.753906 155.515625 0 161.726562 "/>
</g>
</svg>